<svg width="506" height="506" viewBox="0 0 506 506" fill="none" xmlns="http://www.w3.org/2000/svg">
<path d="M84.4146 336.484L84.4146 167.655L147.528 169.233L146.74 338.851L84.4146 336.484Z" fill="white" stroke="white" stroke-width="4" stroke-linejoin="round"/>
<path d="M175.395 182.518L148.547 182.716L148.106 323.024L174.953 322.826C187.892 334.249 198.11 341.924 217.584 341.77L392.561 341.462C418.43 341.616 417.636 306.242 393.424 303.453L429.832 303C452.129 302.669 452.835 268.618 431.089 260.766C454.754 259.642 458.194 212.666 424.231 213.372L411.153 213.835C431.751 203.338 429.392 171.249 406.72 171.249L263.92 170.609C276.594 160.087 284.852 154.675 287.143 139.755L288.069 120.568C289.172 104.204 275.631 91.5893 265.574 100.72L175.395 182.518Z" fill="url(#paint0_linear_1408_5960)"/>
<path d="M263.92 170.609C276.594 160.087 284.852 154.675 287.143 139.755L288.069 120.568C289.172 104.204 275.631 91.5893 265.574 100.72L175.395 182.518L148.547 182.716L148.106 323.024L174.953 322.826C187.892 334.249 198.11 341.924 217.584 341.77L392.561 341.462C418.43 341.616 417.636 306.242 393.424 303.453M263.92 170.609L263.06 219.194C261.782 239.348 257.743 246.316 246.034 252.848M263.92 170.609L406.72 171.249C429.392 171.249 431.751 203.338 411.153 213.835M411.153 213.835L316.607 214.43M411.153 213.835L424.231 213.372C458.194 212.666 454.754 259.642 431.089 260.766M431.089 260.766L316.276 260.149M431.089 260.766C452.835 268.618 452.129 302.669 429.832 303L393.424 303.453M316.563 304.411L393.424 303.453" stroke="white" stroke-width="6" stroke-linejoin="round"/>
<defs>
<linearGradient id="paint0_linear_1408_5960" x1="381.548" y1="142.545" x2="189.822" y2="359.833" gradientUnits="userSpaceOnUse">
<stop stop-color="#725BFF"/>
<stop offset="1" stop-color="#4791FF"/>
</linearGradient>
</defs>
</svg>
