<svg width="506" height="506" viewBox="0 0 506 506" fill="none" xmlns="http://www.w3.org/2000/svg">
<path d="M420.991 336.484L420.991 167.655L357.877 169.233L358.666 338.851L420.991 336.484Z" fill="white" stroke="white" stroke-width="4" stroke-linejoin="round"/>
<path d="M330.01 182.518L356.858 182.716L357.299 323.024L330.452 322.826C317.513 334.249 307.295 341.924 287.821 341.77L112.845 341.462C86.975 341.616 87.7688 306.242 111.981 303.453L75.573 303C53.2762 302.669 52.5704 268.618 74.3158 260.766C50.6517 259.642 47.2111 212.666 81.1745 213.372L94.2525 213.835C73.6539 203.338 76.0135 171.249 98.6853 171.249L241.485 170.609C228.812 160.087 220.554 154.675 218.262 139.755L217.336 120.568C216.233 104.204 229.774 91.5893 239.831 100.72L330.01 182.518Z" fill="url(#paint0_linear_1408_5960)"/>
<path d="M241.485 170.609C228.812 160.087 220.554 154.675 218.262 139.755L217.336 120.568C216.233 104.204 229.774 91.5893 239.831 100.72L330.01 182.518L356.858 182.716L357.299 323.024L330.452 322.826C317.513 334.249 307.295 341.924 287.821 341.77L112.845 341.462C86.975 341.616 87.7688 306.242 111.981 303.453M241.485 170.609L242.346 219.194C243.623 239.348 247.662 246.316 259.371 252.848M241.485 170.609L98.6853 171.249C76.0135 171.249 73.6539 203.338 94.2525 213.835M94.2525 213.835L188.798 214.43M94.2525 213.835L81.1745 213.372C47.2111 212.666 50.6517 259.642 74.3158 260.766M74.3158 260.766L189.129 260.149M74.3158 260.766C52.5704 268.618 53.2762 302.669 75.573 303L111.981 303.453M188.843 304.411L111.981 303.453" stroke="white" stroke-width="6" stroke-linejoin="round"/>
<defs>
<linearGradient id="paint0_linear_1408_5960" x1="123.857" y1="142.545" x2="315.583" y2="359.833" gradientUnits="userSpaceOnUse">
<stop stop-color="#725BFF"/>
<stop offset="1" stop-color="#4791FF"/>
</linearGradient>
</defs>
</svg>
