<svg width="449" height="449" viewBox="0 0 449 449" fill="none" xmlns="http://www.w3.org/2000/svg">
<path d="M363.877 150.837L363.877 319.666L300.764 318.088L301.552 148.47L363.877 150.837Z" fill="white" stroke="white" stroke-width="4" stroke-linejoin="round"/>
<path d="M299.5 303.519L281.755 303.519L219.388 335.943L173.63 335.21C173.63 335.21 150.751 335.238 127.872 334.478C104.993 333.718 102.678 291.906 127.932 285.563L99.5299 285.598C67.184 284.849 68.0207 246.19 95.6504 232.744C57.7848 229.635 57.8433 182.298 93.3488 179.887C61.7909 179.926 57.0757 134.456 89.4236 133.627L163.621 134.831C203.589 113.455 229.147 117.398 282.5 163.5L299.5 163.5L299.5 303.519Z" fill="url(#paint0_linear_1408_5958)"/>
<path d="M127.932 285.563C102.678 291.906 104.993 333.718 127.872 334.478C150.751 335.238 173.63 335.21 173.63 335.21M127.932 285.563L99.5299 285.598C67.184 284.849 68.0207 246.19 95.6504 232.744M127.932 285.563L150.812 285.535M173.691 285.507C195.768 296.525 199.68 322.555 173.63 335.21M173.691 285.507L150.812 285.535M173.691 285.507C203.835 274.761 210.326 255.335 203.5 197C214.68 229.828 227.05 237.414 257 237M173.63 335.21L219.388 335.943L281.755 303.519L299.5 303.519L299.5 163.5L282.5 163.5C229.147 117.398 203.589 113.455 163.621 134.831M95.6504 232.744L150.875 234.254M95.6504 232.744C57.7848 229.635 57.8433 182.298 93.3488 179.887M150.875 234.254L150.812 285.535M150.875 234.254L151.731 179.815M93.3488 179.887L151.731 179.815M93.3488 179.887C61.7909 179.926 57.0757 134.456 89.4236 133.627L163.621 134.831M151.731 179.815C151.16 160.346 154.455 149.138 163.621 134.831M163.621 134.831C163.319 135.289 163.909 134.381 163.621 134.831Z" stroke="white" stroke-width="6" stroke-linejoin="round"/>
<defs>
<linearGradient id="paint0_linear_1408_5958" x1="97.4949" y1="310.535" x2="272.015" y2="136.015" gradientUnits="userSpaceOnUse">
<stop stop-color="#725BFF"/>
<stop offset="1" stop-color="#4791FF"/>
</linearGradient>
</defs>
</svg>
