<svg width="449" height="449" viewBox="0 0 449 449" fill="none" xmlns="http://www.w3.org/2000/svg">
<path d="M84.4146 150.837L84.4146 319.666L147.528 318.088L146.74 148.47L84.4146 150.837Z" fill="white" stroke="white" stroke-width="4" stroke-linejoin="round"/>
<path d="M148.792 303.519L166.537 303.519L228.904 335.943L274.662 335.21C274.662 335.21 297.541 335.238 320.42 334.478C343.299 333.718 345.614 291.906 320.36 285.563L348.762 285.598C381.108 284.849 380.271 246.19 352.642 232.744C390.507 229.635 390.449 182.298 354.943 179.887C386.501 179.926 391.216 134.456 358.868 133.627L284.671 134.831C244.703 113.455 219.145 117.398 165.792 163.5L148.792 163.5L148.792 303.519Z" fill="url(#paint0_linear_1408_5958)"/>
<path d="M320.36 285.563C345.614 291.906 343.299 333.718 320.42 334.478C297.541 335.238 274.662 335.21 274.662 335.21M320.36 285.563L348.762 285.598C381.108 284.849 380.271 246.19 352.642 232.744M320.36 285.563L297.48 285.535M274.601 285.507C252.524 296.525 248.612 322.555 274.662 335.21M274.601 285.507L297.48 285.535M274.601 285.507C244.457 274.761 237.966 255.335 244.792 197C233.612 229.828 221.242 237.414 191.292 237M274.662 335.21L228.904 335.943L166.537 303.519L148.792 303.519L148.792 163.5L165.792 163.5C219.145 117.398 244.703 113.455 284.671 134.831M352.642 232.744L297.417 234.254M352.642 232.744C390.507 229.635 390.449 182.298 354.943 179.887M297.417 234.254L297.48 285.535M297.417 234.254L296.561 179.815M354.943 179.887L296.561 179.815M354.943 179.887C386.501 179.926 391.216 134.456 358.868 133.627L284.671 134.831M296.561 179.815C297.132 160.346 293.837 149.138 284.671 134.831M284.671 134.831C284.973 135.289 284.383 134.381 284.671 134.831Z" stroke="white" stroke-width="6" stroke-linejoin="round"/>
<defs>
<linearGradient id="paint0_linear_1408_5958" x1="350.797" y1="310.535" x2="176.277" y2="136.015" gradientUnits="userSpaceOnUse">
<stop stop-color="#725BFF"/>
<stop offset="1" stop-color="#4791FF"/>
</linearGradient>
</defs>
</svg>
