<svg width="549" height="549" viewBox="0 0 549 549" fill="none" xmlns="http://www.w3.org/2000/svg">
<path d="M84.4146 195.384L84.4146 364.213L147.528 362.635L146.74 193.017L84.4146 195.384Z" fill="white" stroke="white" stroke-width="4" stroke-linejoin="round"/>
<path d="M176.046 208.097L147.887 208.387L148.887 350.387L176.092 348.797C198.662 365.69 217.295 367.442 254.844 364.992L295.893 365.167C322.435 365.073 325.659 323.185 303.27 320.495C332.728 322.058 344.799 302.169 331.878 281.456L425.928 292.454C451.286 295.802 454.037 253.388 428.206 249.514L307.905 233.118L430.139 213.066C452.941 209.135 446.189 167.804 422.379 170.595L271.579 191.134C257.884 193.183 250.054 192.732 236.023 191.241C228.3 190.2 224.433 190.326 217.995 191.296C200.31 195.357 194.573 208.078 176.046 208.097Z" fill="url(#paint0_linear_1408_5998)"/>
<path d="M331.878 281.456L425.928 292.454C451.286 295.802 454.037 253.388 428.206 249.514L307.905 233.118L430.139 213.066C452.941 209.135 446.189 167.804 422.379 170.595L271.579 191.134C257.884 193.183 250.054 192.732 236.023 191.241M331.878 281.456C324.326 274.262 319.849 271.39 310.912 270.83L272.753 272.811M331.878 281.456C344.799 302.169 332.728 322.058 303.27 320.495M272.753 272.811L273.002 305.871C272.979 316.836 262.144 322.546 250.344 317.687C238.545 312.828 233.213 305.777 229.041 294.526L227.692 253.897C219.483 280.376 211.955 291.575 181.215 289.986M272.753 272.811L272.535 229.739C270.414 205.49 260.749 197.069 236.023 191.241M236.023 191.241C228.3 190.2 224.433 190.326 217.995 191.296C200.31 195.357 194.573 208.078 176.046 208.097L147.887 208.387L148.887 350.387L176.092 348.797C198.662 365.69 217.295 367.442 254.844 364.992M303.27 320.495L257.887 319.416C241.367 323.297 228.119 344.88 254.844 364.992M303.27 320.495C325.659 323.185 322.435 365.073 295.893 365.167L254.844 364.992" stroke="white" stroke-width="6" stroke-linejoin="round"/>
<defs>
<linearGradient id="paint0_linear_1408_5998" x1="145.224" y1="258.567" x2="446.218" y2="274.535" gradientUnits="userSpaceOnUse">
<stop stop-color="#725BFF"/>
<stop offset="1" stop-color="#4791FF"/>
</linearGradient>
</defs>
</svg>
