<svg width="549" height="549" viewBox="0 0 549 549" fill="none" xmlns="http://www.w3.org/2000/svg">
<path d="M464.472 195.384L464.472 364.213L401.358 362.635L402.147 193.017L464.472 195.384Z" fill="white" stroke="white" stroke-width="4" stroke-linejoin="round"/>
<path d="M372.841 208.097L401 208.387L400 350.387L372.795 348.797C350.224 365.69 331.592 367.442 294.042 364.992L252.994 365.167C226.452 365.073 223.228 323.185 245.617 320.495C216.158 322.058 204.088 302.169 217.008 281.456L122.959 292.454C97.6009 295.802 94.85 253.388 120.681 249.514L240.981 233.118L118.747 213.066C95.9456 209.135 102.697 167.804 126.508 170.595L277.308 191.134C291.003 193.183 298.833 192.732 312.864 191.241C320.587 190.2 324.454 190.326 330.892 191.296C348.577 195.357 354.314 208.078 372.841 208.097Z" fill="url(#paint0_linear_1408_5998)"/>
<path d="M217.008 281.456L122.959 292.454C97.6009 295.802 94.85 253.388 120.681 249.514L240.981 233.118L118.747 213.066C95.9456 209.135 102.697 167.804 126.508 170.595L277.308 191.134C291.003 193.183 298.833 192.732 312.864 191.241M217.008 281.456C224.561 274.262 229.038 271.39 237.975 270.83L276.134 272.811M217.008 281.456C204.088 302.169 216.158 322.058 245.617 320.495M276.134 272.811L275.885 305.871C275.908 316.836 286.743 322.546 298.542 317.687C310.342 312.828 315.674 305.777 319.845 294.526L321.195 253.897C329.404 280.376 336.931 291.575 367.672 289.986M276.134 272.811L276.352 229.739C278.473 205.49 288.138 197.069 312.864 191.241M312.864 191.241C320.587 190.2 324.454 190.326 330.892 191.296C348.577 195.357 354.314 208.078 372.841 208.097L401 208.387L400 350.387L372.795 348.797C350.224 365.69 331.592 367.442 294.042 364.992M245.617 320.495L291 319.416C307.52 323.297 320.768 344.88 294.042 364.992M245.617 320.495C223.228 323.185 226.452 365.073 252.994 365.167L294.042 364.992" stroke="white" stroke-width="6" stroke-linejoin="round"/>
<defs>
<linearGradient id="paint0_linear_1408_5998" x1="403.662" y1="258.567" x2="102.668" y2="274.535" gradientUnits="userSpaceOnUse">
<stop stop-color="#725BFF"/>
<stop offset="1" stop-color="#4791FF"/>
</linearGradient>
</defs>
</svg>
